<svg xmlns="http://www.w3.org/2000/svg" viewBox="0 0 1536 864" role="img" aria-labelledby="title desc">
  <title id="title">Draft generated prison cell level</title>
  <desc id="desc">A child-safe cartoon prison cell level draft with planned puzzle objects.</desc>
  <rect width="1536" height="864" fill="#1a1718"/>
  <rect x="52" y="54" width="1432" height="756" rx="24" fill="#776862"/>
  <rect x="98" y="98" width="1340" height="666" rx="8" fill="#ddbc8e"/>
  <rect x="98" y="486" width="1340" height="278" fill="#6ba18b"/>
  <rect x="98" y="710" width="1340" height="54" fill="#c6a06f"/>
  <g fill="#716562" stroke="#2e2729" stroke-width="8">
    <rect x="58" y="58" width="130" height="62" rx="16"/>
    <rect x="194" y="58" width="190" height="62" rx="16"/>
    <rect x="392" y="58" width="190" height="62" rx="16"/>
    <rect x="590" y="58" width="300" height="62" rx="16"/>
    <rect x="900" y="58" width="240" height="62" rx="16"/>
    <rect x="1150" y="58" width="330" height="62" rx="16"/>
    <rect x="58" y="744" width="300" height="62" rx="16"/>
    <rect x="368" y="744" width="260" height="62" rx="16"/>
    <rect x="638" y="744" width="330" height="62" rx="16"/>
    <rect x="978" y="744" width="230" height="62" rx="16"/>
    <rect x="1218" y="744" width="262" height="62" rx="16"/>
    <rect x="58" y="130" width="42" height="180" rx="14"/>
    <rect x="58" y="320" width="42" height="190" rx="14"/>
    <rect x="58" y="520" width="42" height="214" rx="14"/>
    <rect x="1436" y="130" width="42" height="180" rx="14"/>
    <rect x="1436" y="320" width="42" height="190" rx="14"/>
    <rect x="1436" y="520" width="42" height="214" rx="14"/>
  </g>
  <path d="M770 176 L1060 530 L470 530 Z" fill="#f4d68d" opacity=".45"/>
  <g id="door">
    <rect x="132" y="298" width="196" height="376" rx="18" fill="#3f5871" stroke="#26313c" stroke-width="12"/>
    <rect x="218" y="410" width="72" height="72" rx="6" fill="#202329" stroke="#9d9a8e" stroke-width="8"/>
    <rect x="236" y="421" width="12" height="50" fill="#f3e7ca"/>
    <rect x="260" y="421" width="12" height="50" fill="#f3e7ca"/>
    <rect x="250" y="548" width="58" height="110" rx="8" fill="#6d5143" stroke="#2c2324" stroke-width="6"/>
  </g>
  <g id="window">
    <rect x="1266" y="260" width="116" height="88" rx="8" fill="#89d2ed" stroke="#4e5359" stroke-width="10"/>
    <rect x="1301" y="262" width="10" height="84" fill="#3b4149"/>
    <rect x="1337" y="262" width="10" height="84" fill="#3b4149"/>
    <path d="M1190 354 L1430 295 L1430 490 L1190 545 Z" fill="#fff0b3" opacity=".28"/>
  </g>
  <g id="lamp">
    <line x1="768" y1="116" x2="768" y2="172" stroke="#34424a" stroke-width="16"/>
    <path d="M690 206 Q768 140 846 206 L826 242 L710 242 Z" fill="#247c86" stroke="#23424c" stroke-width="8"/>
    <circle cx="768" cy="247" r="22" fill="#fff1a7"/>
  </g>
  <g id="shelves">
    <rect x="610" y="378" width="360" height="26" rx="8" fill="#9e602d"/>
    <rect x="1050" y="386" width="230" height="24" rx="8" fill="#9e602d"/>
    <rect x="690" y="306" width="32" height="70" rx="5" fill="#2d8b9b"/>
    <rect x="727" y="318" width="30" height="58" rx="5" fill="#cf7430"/>
    <rect x="762" y="302" width="35" height="74" rx="5" fill="#b23d38"/>
    <rect x="820" y="300" width="76" height="62" rx="5" fill="#8cc66e"/>
    <circle cx="1105" cy="338" r="28" fill="#65ad55"/>
    <rect x="1082" y="364" width="48" height="28" rx="4" fill="#bd6b35"/>
  </g>
  <g id="bed">
    <rect x="780" y="575" width="470" height="124" rx="20" fill="#d9c9bc" stroke="#5f6870" stroke-width="14"/>
    <rect x="805" y="530" width="28" height="202" rx="12" fill="#777e87"/>
    <rect x="1205" y="500" width="32" height="232" rx="12" fill="#777e87"/>
    <rect x="1110" y="536" width="160" height="58" rx="30" fill="#f4e0c8"/>
    <rect x="858" y="548" width="210" height="50" rx="22" fill="#2366a3"/>
    <rect x="920" y="676" width="150" height="70" rx="8" fill="#99622e"/>
  </g>
  <g id="props">
    <rect x="306" y="674" width="220" height="96" rx="10" fill="#ad7135" stroke="#68401f" stroke-width="8"/>
    <rect x="270" y="722" width="96" height="62" rx="26" fill="#cfd2cd" stroke="#7d858a" stroke-width="8"/>
    <rect x="570" y="500" width="18" height="230" rx="9" fill="#b97926"/>
    <path d="M534 720 L625 720 L585 592 Z" fill="#d59b32" stroke="#875c22" stroke-width="6"/>
    <rect x="1260" y="680" width="190" height="88" rx="10" fill="#b97836" stroke="#70491f" stroke-width="8"/>
    <rect x="1160" y="690" width="130" height="58" rx="9" fill="#3f5d85" stroke="#2a3952" stroke-width="8"/>
  </g>
  <g id="planned" font-family="Arial, sans-serif" font-size="18" font-weight="700">
    <rect x="1018" y="508" width="100" height="30" rx="15" fill="#122033" opacity=".92"/>
    <text x="1068" y="530" text-anchor="middle" fill="#7ee787">pillow</text>
    <rect x="1044" y="612" width="72" height="30" rx="15" fill="#122033" opacity=".92"/>
    <text x="1080" y="634" text-anchor="middle" fill="#ffd166">key</text>
    <rect x="500" y="472" width="98" height="30" rx="15" fill="#122033" opacity=".92"/>
    <text x="549" y="494" text-anchor="middle" fill="#58a6ff">broom</text>
  </g>
</svg>
